<?xml version="1.0" encoding="utf-8"?>
<!-- Generator: Adobe Illustrator 21.0.0, SVG Export Plug-In . SVG Version: 6.00 Build 0)  -->
<svg version="1.1"
	 id="logo_1_" xmlns:cc="http://creativecommons.org/ns#" xmlns:dc="http://purl.org/dc/elements/1.1/" xmlns:rdf="http://www.w3.org/1999/02/22-rdf-syntax-ns#"
	 xmlns="http://www.w3.org/2000/svg" xmlns:xlink="http://www.w3.org/1999/xlink" x="0px" y="0px" viewBox="0 0 400 300"
	 style="enable-background:new 0 0 400 300;" xml:space="preserve">
<style type="text/css">
	.st0{fill:#FF1E00;}
</style>
<path id="logo" class="st0" d="M297.9,198.9l98.2-97.9h-61.6l-97.9,97.9H297.9z M284,143.6H160.2c-32.9,0-38.1,2.5-52.9,17.5
	l-38,37.9h51.4l12.2-12.2c8.2-8.2,11.7-8.9,28-8.9h88.8L284,143.6z M102.7,156.8l-43.5,42.1H3.8l68.9-68.3
	c25.7-25.4,38-29.6,81.7-29.6h172.6l-37.5,36.7H159.4C126.8,137.8,119.8,140.2,102.7,156.8z M334.4,198.9h2.1v-9.4l3.5,9.4h1.7
	l3.5-9.4v9.4h2.1v-12.2h-3.1l-3.2,9.6l-3.4-9.6h-3.1L334.4,198.9z M323.1,188.6h3.9v10.4h2.1v-10.4h4v-1.8h-10V188.6z"/>
</svg>
